<mxfile host="app.diagrams.net" agent="Mozilla/5.0 (Macintosh; Intel Mac OS X 10_15_7) AppleWebKit/537.36 (KHTML, like Gecko) Chrome/134.0.0.0 Safari/537.36" version="26.1.2">
  <diagram name="第 1 页" id="RH6JMSnUIUskI3Q1dbDT">
    <mxGraphModel dx="626" dy="650" grid="0" gridSize="10" guides="1" tooltips="1" connect="1" arrows="1" fold="1" page="0" pageScale="1" pageWidth="1200" pageHeight="1920" math="0" shadow="0">
      <root>
        <mxCell id="0" />
        <mxCell id="1" parent="0" />
        <mxCell id="RXyxvR0ZlvbnnxnLkfDE-3" style="edgeStyle=orthogonalEdgeStyle;rounded=0;orthogonalLoop=1;jettySize=auto;html=1;" edge="1" parent="1" source="RXyxvR0ZlvbnnxnLkfDE-1" target="RXyxvR0ZlvbnnxnLkfDE-2">
          <mxGeometry relative="1" as="geometry" />
        </mxCell>
        <mxCell id="RXyxvR0ZlvbnnxnLkfDE-6" style="edgeStyle=orthogonalEdgeStyle;rounded=0;orthogonalLoop=1;jettySize=auto;html=1;entryX=0.5;entryY=0;entryDx=0;entryDy=0;" edge="1" parent="1" source="RXyxvR0ZlvbnnxnLkfDE-1" target="RXyxvR0ZlvbnnxnLkfDE-4">
          <mxGeometry relative="1" as="geometry">
            <Array as="points">
              <mxPoint x="524" y="390" />
              <mxPoint x="673" y="390" />
            </Array>
          </mxGeometry>
        </mxCell>
        <mxCell id="RXyxvR0ZlvbnnxnLkfDE-11" style="edgeStyle=orthogonalEdgeStyle;rounded=0;orthogonalLoop=1;jettySize=auto;html=1;" edge="1" parent="1" source="RXyxvR0ZlvbnnxnLkfDE-1" target="RXyxvR0ZlvbnnxnLkfDE-8">
          <mxGeometry relative="1" as="geometry">
            <Array as="points">
              <mxPoint x="524" y="390" />
              <mxPoint x="822" y="390" />
            </Array>
          </mxGeometry>
        </mxCell>
        <mxCell id="RXyxvR0ZlvbnnxnLkfDE-1" value="&lt;font style=&quot;font-size: 24px;&quot;&gt;企业&lt;/font&gt;" style="rounded=0;whiteSpace=wrap;html=1;" vertex="1" parent="1">
          <mxGeometry x="464" y="306" width="120" height="60" as="geometry" />
        </mxCell>
        <mxCell id="RXyxvR0ZlvbnnxnLkfDE-17" style="edgeStyle=orthogonalEdgeStyle;rounded=0;orthogonalLoop=1;jettySize=auto;html=1;" edge="1" parent="1" source="RXyxvR0ZlvbnnxnLkfDE-2" target="RXyxvR0ZlvbnnxnLkfDE-14">
          <mxGeometry relative="1" as="geometry" />
        </mxCell>
        <mxCell id="RXyxvR0ZlvbnnxnLkfDE-2" value="&lt;font style=&quot;font-size: 24px;&quot;&gt;正常缴税&lt;/font&gt;" style="rounded=0;whiteSpace=wrap;html=1;" vertex="1" parent="1">
          <mxGeometry x="464" y="449" width="120" height="60" as="geometry" />
        </mxCell>
        <mxCell id="RXyxvR0ZlvbnnxnLkfDE-7" style="edgeStyle=orthogonalEdgeStyle;rounded=0;orthogonalLoop=1;jettySize=auto;html=1;" edge="1" parent="1" source="RXyxvR0ZlvbnnxnLkfDE-4" target="RXyxvR0ZlvbnnxnLkfDE-5">
          <mxGeometry relative="1" as="geometry" />
        </mxCell>
        <mxCell id="RXyxvR0ZlvbnnxnLkfDE-4" value="&lt;span style=&quot;font-size: 24px;&quot;&gt;主动补税&lt;/span&gt;" style="rounded=0;whiteSpace=wrap;html=1;" vertex="1" parent="1">
          <mxGeometry x="613" y="449" width="120" height="60" as="geometry" />
        </mxCell>
        <mxCell id="RXyxvR0ZlvbnnxnLkfDE-18" style="edgeStyle=orthogonalEdgeStyle;rounded=0;orthogonalLoop=1;jettySize=auto;html=1;" edge="1" parent="1" source="RXyxvR0ZlvbnnxnLkfDE-5" target="RXyxvR0ZlvbnnxnLkfDE-15">
          <mxGeometry relative="1" as="geometry" />
        </mxCell>
        <mxCell id="RXyxvR0ZlvbnnxnLkfDE-5" value="&lt;span style=&quot;font-size: 24px;&quot;&gt;申请退税&lt;/span&gt;" style="rounded=0;whiteSpace=wrap;html=1;" vertex="1" parent="1">
          <mxGeometry x="613" y="583" width="120" height="60" as="geometry" />
        </mxCell>
        <mxCell id="RXyxvR0ZlvbnnxnLkfDE-12" style="edgeStyle=orthogonalEdgeStyle;rounded=0;orthogonalLoop=1;jettySize=auto;html=1;" edge="1" parent="1" source="RXyxvR0ZlvbnnxnLkfDE-8" target="RXyxvR0ZlvbnnxnLkfDE-9">
          <mxGeometry relative="1" as="geometry" />
        </mxCell>
        <mxCell id="RXyxvR0ZlvbnnxnLkfDE-8" value="&lt;font style=&quot;font-size: 24px;&quot;&gt;正常缴税&lt;/font&gt;" style="rounded=0;whiteSpace=wrap;html=1;" vertex="1" parent="1">
          <mxGeometry x="762" y="449" width="120" height="60" as="geometry" />
        </mxCell>
        <mxCell id="RXyxvR0ZlvbnnxnLkfDE-13" style="edgeStyle=orthogonalEdgeStyle;rounded=0;orthogonalLoop=1;jettySize=auto;html=1;" edge="1" parent="1" source="RXyxvR0ZlvbnnxnLkfDE-9" target="RXyxvR0ZlvbnnxnLkfDE-10">
          <mxGeometry relative="1" as="geometry" />
        </mxCell>
        <mxCell id="RXyxvR0ZlvbnnxnLkfDE-9" value="&lt;font style=&quot;font-size: 24px;&quot;&gt;多次修改&lt;/font&gt;" style="rounded=0;whiteSpace=wrap;html=1;" vertex="1" parent="1">
          <mxGeometry x="762" y="583" width="120" height="60" as="geometry" />
        </mxCell>
        <mxCell id="RXyxvR0ZlvbnnxnLkfDE-19" style="edgeStyle=orthogonalEdgeStyle;rounded=0;orthogonalLoop=1;jettySize=auto;html=1;" edge="1" parent="1" source="RXyxvR0ZlvbnnxnLkfDE-10" target="RXyxvR0ZlvbnnxnLkfDE-16">
          <mxGeometry relative="1" as="geometry" />
        </mxCell>
        <mxCell id="RXyxvR0ZlvbnnxnLkfDE-10" value="&lt;font style=&quot;font-size: 24px;&quot;&gt;申请退税&lt;/font&gt;" style="rounded=0;whiteSpace=wrap;html=1;" vertex="1" parent="1">
          <mxGeometry x="762" y="717" width="120" height="60" as="geometry" />
        </mxCell>
        <mxCell id="RXyxvR0ZlvbnnxnLkfDE-14" value="" style="shape=image;verticalLabelPosition=bottom;labelBackgroundColor=default;verticalAlign=top;aspect=fixed;imageAspect=0;image=data:image/png,iVBORw0KGgoAAAANSUhEUgAAAD4AAAA+CAYAAABzwahEAAAAAXNSR0IArs4c6QAAAIRlWElmTU0AKgAAAAgABQESAAMAAAABAAEAAAEaAAUAAAABAAAASgEbAAUAAAABAAAAUgEoAAMAAAABAAIAAIdpAAQAAAABAAAAWgAAAAAAAABIAAAAAQAAAEgAAAABAAOgAQADAAAAAQABAACgAgAEAAAAAQAAAD6gAwAEAAAAAQAAAD4AAAAA1hlH+AAAAAlwSFlzAAALEwAACxMBAJqcGAAACCBJREFUaAXtWntsFEUYn8fuXXlJYpSo4Q98xqBE45MQ1JJeecQYLTGKyCMI9K6AYO+KJBhDYyIa6R1opb1DYhSfCAi+Q68tNVExGhONIRhjiP7hg8QY5YT27nZ3/L4taybn7u3uPbjG3CTtzs58M/P95nvM980eIfVS34H6DtR34H+4A7wWmIQQ9Ne7LlGvu/O2CXdfPVsbGhoS55oPei4WDPd3TaeULaWGaBREXE8IDeC6gJYCAwL+M3h+AU1f6wY5sGtutK/afFUFeKfoZL/1T1oJIFdSQq9WGwKTdU0nwjDgz164CJ0yRhhnRMtqQCSOC0r3ch58vWfO2h8qvREVBR45vG0K4SzMFeUJUGdiANhyCm6E0qCS/JncUc3QH9w9b+OPMJ/9zvlcqGLAw+n4dlh7NWNsAkq2koWCQcBGGvDo6w3FFlRi7rKBt6XjM0EEB7iqXKLntUrw5DgHaoC5qYJEknNjKUdCDx3MA40jCUi5gyr8KBBUHTQyYWkS+INkpC/+liNjHjpKlnhbOrGHKmxpuXbsgUdbEq5youf1b40TE2/c1RrWCFiDLaFDY0nAQb1fhiNoGTqwmhbzMBQnRpTMNS/N6Rzxw4tvVY8MbO8hjNUeNKLEjaf0sgZt0pd+QCOtL+Bo04zRNsvW/C5WFXoAzxR+LZhe2s/8nlUdvTc6slrZtCsoUHsw8xgcdwlXWiDwLHGIovaNWdCIFNWesfiKD7deWDHgkb7EDq7wqV4mrCUNmmBQbfis8Uin4saHq8QxDBVUrKp2cOLGqKd+85ARV8zQJs1wo3cFTjjfgGGo20Rjph+8FsSPrsFNUefW+l5q/Pgp4vTIqdNjBpcXRngAEpuRXMuueR2HnOiLSpwHzyzOnfEVFzitU1a7ElTxyPI8h57LQ3pLlxQbUBS4YOL+WnpyM0cn5HB+RLvZyOsrAMhwMTByHxX0dvm9sF5U1SPp+J8wYHLhoHPxjqDhhBpMNrWHIDoz3VY4nUhBgtbqdJkh86U0BIjIZaftbOr4SW636o4SD/c9eyWoWM1AE0H3JEPRJgu0yTAV472mIqipuiAPW0ALn47AOcu3eNnZwgnLfTdzbkHTvaH25fJc4YHEXYyyJV4TIwMu74jBHO3cEbhhsEajwjcpMhC7Oqq3IYxDF33y13y5Pzy4YxlcVL7rK0cAO4H4Y4o8j1x3tHFI9Ecg+A3KxG51uIUxLwvM3XYjLug/a9Nvgno/IHe1DSRWMM5fLCWAAscgdMov3h165KQ8J9YdJQ6g1ULi4u/0b0PTnjJ08Q7ekfkpZ0EP/Qf04PY7wdxKAo3rIxdBotv6KVvgnZ2dtu1OYNRxQaLqYjZkRpuTzdF7QMk2ULgm9lJG1Zu8CqDnyPRg0xF4f19u81+nRNPIOLtxttxt2bLFPD7sBti14V149/zYN1ZfMhR7DiQVdws60JGBl/4gFYoutcbic83g9oWcsV6BDqpKxRY4qKov4LkzWRLpj78g8wgS7NANsdFJ7XGzwCHs/f2Po3fL4yL9iUW6buyvTOAkiKLYBz22wJERMNOszFCxOnpbcECrwv3xuEyXamrvgvfHCiU/emQZ3WAai/bdt+/frw6R/h3wMYK/Abbpz0nIixbU8wGWKWgyXx2Bgwp+g/bntaCEGKVRkNiT8pjeUHSroevPWHONOjJxsLcptl6ma+uLL2FMJEvx3vI8ch3V9rxh7ZTcZtWdgVN2xLRBi9LDEwMeuJPbDKHlizI52Pwmw6DrMdkAI+oBM1go9wPoTXBV/Uopx6A8T2EdwJ3umrfRNrV0BE6JfrBQRQsntntH5gH8ishAvFPuTzW3d2vZ/L09oehauX3N4cQaPi7wdMVBj54qb8tryfWiulxOkoJODb6N7kyFYuvkBeV6JN3VDubs6XJQHueljtqlj2iNvXOjH9vRO0ocieHe8ju7QV7aMKbmnK8Fh/e8HT2o9251XENVQON6oF0ZJ9DYXxQ4IB+wnBIS+y2mwyN0baHahw/Ht7GAsjI/7Png8Ls0HJX0k2KDiqr6mmM7J6oZmslmPOf/tmuZm2eQIV3Xuzhn68D9z69m5oe+SehauDfUscuWIWgsChwHgZ2/Bva62Gs66LgQHI14F6bntH+/ejrRVqD9VLI5ZhujW3MXV3WkYvRRSE9z1oBSnyhhbSRXddCmdjHW4sanK/BkU/RnCEwGzRDTbbax0G+IX9Qs/9SNFVdVtyaIpBMQCMDVzxguSjBA8rns3FSow/UDoqvELZxw7fNQOR7emqeaz3wul/ACGnnwDLwn9MhecHApvGUZawVDa7hOPiaGM4975c2zqlsTgpf/ClK3G8yvk1Zj7Z8ZdZI6tXvmetuExI49zxK3Bqt5dRaA/hzz1rFQIB0mLMBu9QMa+fYNvHvB+hyAbwTw39ZS7c9mjhnCxfSeO9qP+xVCWWKr5Y+A0KaV85RZfiVtbZBviVsD8dnbHFsOgQleCp6zokD0B9q2VT9/wi2lgkZmy5K4jBbO+e+Bo8shvGXlhrfyvFZ9NN4Xv8F7C2z451Z7qc+yJC4vCtfKV2mGcQVko0fh18pyV1n1s37kFPy2u2lYyVxaCdDIUMUkLqNr/ahrNlfoakHJ7bAJ0+AXiGaM7pqRwUmBoTF6ai2by1AhhiDE35Oa17Ffnr8S9aoAlxlrTT89mRKlA+A0w4eGm+AC0PYKEy8GgZmTcPlxSNFFUr6nl+erVL3qwAsZbT3SdUEgHwwIlpuIfTpnOfhSmMdkqJC2/l7fgfoO1HegvgM+d+AfjuryyxR1eEsAAAAASUVORK5CYII=;" vertex="1" parent="1">
          <mxGeometry x="493" y="824" width="62" height="62" as="geometry" />
        </mxCell>
        <mxCell id="RXyxvR0ZlvbnnxnLkfDE-15" value="" style="shape=image;verticalLabelPosition=bottom;labelBackgroundColor=default;verticalAlign=top;aspect=fixed;imageAspect=0;image=data:image/png,iVBORw0KGgoAAAANSUhEUgAAAD4AAAA+CAYAAABzwahEAAAAAXNSR0IArs4c6QAAAIRlWElmTU0AKgAAAAgABQESAAMAAAABAAEAAAEaAAUAAAABAAAASgEbAAUAAAABAAAAUgEoAAMAAAABAAIAAIdpAAQAAAABAAAAWgAAAAAAAABIAAAAAQAAAEgAAAABAAOgAQADAAAAAQABAACgAgAEAAAAAQAAAD6gAwAEAAAAAQAAAD4AAAAA1hlH+AAAAAlwSFlzAAALEwAACxMBAJqcGAAACCBJREFUaAXtWntsFEUYn8fuXXlJYpSo4Q98xqBE45MQ1JJeecQYLTGKyCMI9K6AYO+KJBhDYyIa6R1opb1DYhSfCAi+Q68tNVExGhONIRhjiP7hg8QY5YT27nZ3/L4taybn7u3uPbjG3CTtzs58M/P95nvM980eIfVS34H6DtR34H+4A7wWmIQQ9Ne7LlGvu/O2CXdfPVsbGhoS55oPei4WDPd3TaeULaWGaBREXE8IDeC6gJYCAwL+M3h+AU1f6wY5sGtutK/afFUFeKfoZL/1T1oJIFdSQq9WGwKTdU0nwjDgz164CJ0yRhhnRMtqQCSOC0r3ch58vWfO2h8qvREVBR45vG0K4SzMFeUJUGdiANhyCm6E0qCS/JncUc3QH9w9b+OPMJ/9zvlcqGLAw+n4dlh7NWNsAkq2koWCQcBGGvDo6w3FFlRi7rKBt6XjM0EEB7iqXKLntUrw5DgHaoC5qYJEknNjKUdCDx3MA40jCUi5gyr8KBBUHTQyYWkS+INkpC/+liNjHjpKlnhbOrGHKmxpuXbsgUdbEq5youf1b40TE2/c1RrWCFiDLaFDY0nAQb1fhiNoGTqwmhbzMBQnRpTMNS/N6Rzxw4tvVY8MbO8hjNUeNKLEjaf0sgZt0pd+QCOtL+Bo04zRNsvW/C5WFXoAzxR+LZhe2s/8nlUdvTc6slrZtCsoUHsw8xgcdwlXWiDwLHGIovaNWdCIFNWesfiKD7deWDHgkb7EDq7wqV4mrCUNmmBQbfis8Uin4saHq8QxDBVUrKp2cOLGqKd+85ARV8zQJs1wo3cFTjjfgGGo20Rjph+8FsSPrsFNUefW+l5q/Pgp4vTIqdNjBpcXRngAEpuRXMuueR2HnOiLSpwHzyzOnfEVFzitU1a7ElTxyPI8h57LQ3pLlxQbUBS4YOL+WnpyM0cn5HB+RLvZyOsrAMhwMTByHxX0dvm9sF5U1SPp+J8wYHLhoHPxjqDhhBpMNrWHIDoz3VY4nUhBgtbqdJkh86U0BIjIZaftbOr4SW636o4SD/c9eyWoWM1AE0H3JEPRJgu0yTAV472mIqipuiAPW0ALn47AOcu3eNnZwgnLfTdzbkHTvaH25fJc4YHEXYyyJV4TIwMu74jBHO3cEbhhsEajwjcpMhC7Oqq3IYxDF33y13y5Pzy4YxlcVL7rK0cAO4H4Y4o8j1x3tHFI9Ecg+A3KxG51uIUxLwvM3XYjLug/a9Nvgno/IHe1DSRWMM5fLCWAAscgdMov3h165KQ8J9YdJQ6g1ULi4u/0b0PTnjJ08Q7ekfkpZ0EP/Qf04PY7wdxKAo3rIxdBotv6KVvgnZ2dtu1OYNRxQaLqYjZkRpuTzdF7QMk2ULgm9lJG1Zu8CqDnyPRg0xF4f19u81+nRNPIOLtxttxt2bLFPD7sBti14V149/zYN1ZfMhR7DiQVdws60JGBl/4gFYoutcbic83g9oWcsV6BDqpKxRY4qKov4LkzWRLpj78g8wgS7NANsdFJ7XGzwCHs/f2Po3fL4yL9iUW6buyvTOAkiKLYBz22wJERMNOszFCxOnpbcECrwv3xuEyXamrvgvfHCiU/emQZ3WAai/bdt+/frw6R/h3wMYK/Abbpz0nIixbU8wGWKWgyXx2Bgwp+g/bntaCEGKVRkNiT8pjeUHSroevPWHONOjJxsLcptl6ma+uLL2FMJEvx3vI8ch3V9rxh7ZTcZtWdgVN2xLRBi9LDEwMeuJPbDKHlizI52Pwmw6DrMdkAI+oBM1go9wPoTXBV/Uopx6A8T2EdwJ3umrfRNrV0BE6JfrBQRQsntntH5gH8ishAvFPuTzW3d2vZ/L09oehauX3N4cQaPi7wdMVBj54qb8tryfWiulxOkoJODb6N7kyFYuvkBeV6JN3VDubs6XJQHueljtqlj2iNvXOjH9vRO0ocieHe8ju7QV7aMKbmnK8Fh/e8HT2o9251XENVQON6oF0ZJ9DYXxQ4IB+wnBIS+y2mwyN0baHahw/Ht7GAsjI/7Png8Ls0HJX0k2KDiqr6mmM7J6oZmslmPOf/tmuZm2eQIV3Xuzhn68D9z69m5oe+SehauDfUscuWIWgsChwHgZ2/Bva62Gs66LgQHI14F6bntH+/ejrRVqD9VLI5ZhujW3MXV3WkYvRRSE9z1oBSnyhhbSRXddCmdjHW4sanK/BkU/RnCEwGzRDTbbax0G+IX9Qs/9SNFVdVtyaIpBMQCMDVzxguSjBA8rns3FSow/UDoqvELZxw7fNQOR7emqeaz3wul/ACGnnwDLwn9MhecHApvGUZawVDa7hOPiaGM4975c2zqlsTgpf/ClK3G8yvk1Zj7Z8ZdZI6tXvmetuExI49zxK3Bqt5dRaA/hzz1rFQIB0mLMBu9QMa+fYNvHvB+hyAbwTw39ZS7c9mjhnCxfSeO9qP+xVCWWKr5Y+A0KaV85RZfiVtbZBviVsD8dnbHFsOgQleCp6zokD0B9q2VT9/wi2lgkZmy5K4jBbO+e+Bo8shvGXlhrfyvFZ9NN4Xv8F7C2z451Z7qc+yJC4vCtfKV2mGcQVko0fh18pyV1n1s37kFPy2u2lYyVxaCdDIUMUkLqNr/ahrNlfoakHJ7bAJ0+AXiGaM7pqRwUmBoTF6ai2by1AhhiDE35Oa17Ffnr8S9aoAlxlrTT89mRKlA+A0w4eGm+AC0PYKEy8GgZmTcPlxSNFFUr6nl+erVL3qwAsZbT3SdUEgHwwIlpuIfTpnOfhSmMdkqJC2/l7fgfoO1HegvgM+d+AfjuryyxR1eEsAAAAASUVORK5CYII=;" vertex="1" parent="1">
          <mxGeometry x="642" y="824" width="62" height="62" as="geometry" />
        </mxCell>
        <mxCell id="RXyxvR0ZlvbnnxnLkfDE-16" value="" style="shape=image;verticalLabelPosition=bottom;labelBackgroundColor=default;verticalAlign=top;aspect=fixed;imageAspect=0;image=data:image/png,iVBORw0KGgoAAAANSUhEUgAAADIAAAAzCAYAAADVY1sUAAAAAXNSR0IArs4c6QAAAIRlWElmTU0AKgAAAAgABQESAAMAAAABAAEAAAEaAAUAAAABAAAASgEbAAUAAAABAAAAUgEoAAMAAAABAAIAAIdpAAQAAAABAAAAWgAAAAAAAABIAAAAAQAAAEgAAAABAAOgAQADAAAAAQABAACgAgAEAAAAAQAAADKgAwAEAAAAAQAAADMAAAAAu5HrGAAAAAlwSFlzAAALEwAACxMBAJqcGAAACsBJREFUaAXNWntsFMcdnpndu7OxwTY2StSIh3mpiEBi8ANIcY3P0DhSoqoqBalpXmqTNmlCSkPTJA2ERooiNW0DUehLiqL+SaT8USTcgm0cUl42hhZSJcUhUOgjFGNsg7Hvbnem33dm3fXZ97IdwsB592Z+j+/b+c3Mb2ZPigksveHK4pgTm28ra54Qco2QplwbMUPChxHmjCWtdiN0g9D6zBTL7pBNrZcmyj19jKv01Cyfq1S0zghZb4xcBMC35SgltTDKMUIZVNKBktJYUmglpB7QGpXy30qKEwLEXBHaW9h88PR4gIyJiMHjvlpbtlII+zHch3OkLND4EjPG0gCOupSFTkksIKULMs6Aa3qUEo22FG+HGtua0J7OxAj7WRPp/HJFRcgSz8BTfVDKUNTogEF30HK23j3nUgoTkiqGBxFBTzZFpfNKSdNf2kagTVHh2UohMth08b67Jof6Bp6TRj2MJ1kU0TrElmzBJ3PkAQkhTmNGd+HRvDWQF3p12h8OXEmm46/39P11I+676pYusrV8NVep6n5X5wF82vAZYSTDCgLCx+RYqm9Ai/3opR8V72v7Wzr1tEQu1pXX5Bq1wxZmdkSb0ET1QCbAgkpGXCFP90v9xLTGoy2pdFIS6a6tWmNL/YY0co5jtHWjSHiACc6WysX0cdox6snC5iN7vLbEa1IiXeHKlUGjfyulnO9oo240CQ9onAxmc0zjp6JSPTq1qfV9r81/HZVIT3XVPGXrd5Qwi+JrgV/jc7gf7Bkso0KexCSzvqSl/aNEGCqx4tPFi/OM7b5iS3n7zUCC+BgNxEJMGDcvmzWL8xJxjyCSMzX0vVyp7o7pGz8mEsH5v5MMMWG9ubsnFnzc38b7YaHVWbdkQdC1dmOVnYVxkSh7U3y3kQoILc8OWM49JY3HPvRADfWIeeklZbvq6YASM9wMSSDNEFjARBCfYU/Es57mSh3qE1ymNojNBsaAK79PzJ6LIf8XayrLc5VpQM5UginCa096RbwKyF5CdnEMHZsP+5WoYq6VVMffYDEvESaKR/AuMsgOTIsLXWPug7adzsJ13U5HWuGpTUeQeELJMx5U5psQKHEwN6Qr7Ak469LSPGtc2a4sgazFrAWoDchqgwCU0gSBoBOiWCB+qbV+WwnVraUohlYMhtZF0+jTPnqwxGj3Qeg8g94YTLGvhqtucbR7CE+51EljhAiRpgski7tiIev+4oYjvay7VF0x3bLFBjyZp2A8kIwMScBxzBFiu+uIbcX7285Tn6W7tnJtQJidxJD6UXChRNpszBnbyBX5LW2fxmMMs8FdiNXpyZwPuvn/X9gQ2FFc8UiwhYC00tuNNm8SKAEnFo8EZSjrJ0FZwM+jWjoSlL3eK9PRFSv4PU4EG5563KSNTSqwxDAgLGkqL4XLlg/WDP6d2th+zhH2NqzCv4a9YWTi4YQ6tlGGsn7dnpolcwHgwQwCIq5GssTsAjsrlFmzJs81YkUmIRW3gD+URYCUBo21tae2vNKr57Wo5fBZNyZfR8z/jmQ4nuIf8kcd2yjj1+muq5htKWsLInZ5NjjiEWTMMnJQVwc6ZyhpZmYaVh4AyFsY3KssI7f2hCsqvHpeC//c9olr9C8g85YF3vzwnnVs88t2V1eWYsbajMH/NchklV1DnqZK4xy0JWcHhJyUfq7yux+MYxiy0TWrLWG2dK9astQvUdjcftq41s9daX7PD+9Z55e5XHPnLBXQP8EE8XXYmpTh8jVkgpgxy+Xhkc7DzCeqML5Gjswh8eQ3NIR1A8NFfsUSavPl6vIyv3TB/iMdmGN/xg/v/W2Xa8tm2lbgOUvIdSDB8B5TYdhie7xMdtcubbKFqs0mNhM9Yixg8EsHxHY5CLWifa1/TZTxf8eOc0bIqGcxzh5AuOWPlQRtXp+G38PwkAtcv5cx3LNnYAOHIOJe7CRfvLyq7I5kZvrREwEtNyEIQMKMiwR9XMf+RQUQhZgSk/nNuJ6pCazYmHnuRbwuTKYY1fYCbNYegDRIjN8vscPKFOaSvTCczG/G9YxVWGGGs0sLnfSwAA7PGy32wrtDnfEWYkdodzO8P8L0OK4SHyNcXjhGhHy5aN/xpGNkMk5EKENZTsvUHU8hduzpP4Qdc3C0dCJT43ESHOjG7HYcAxLDB3pn7R23XQxXzvfbowxlqcNJYjxkSASdcgAhLQ8zvsdSCADhwVOOP7lC/7Ro/9Hjfjv/ram4NWgCj4eM2cRzAH8bZalDXdoYKxkgx7m4OKKkqzuQAPVla8gjATN7cfa0tXDfsXY/0Avh22/JtcSjAPkkntrD0nJ/iKl+jl+GOtSlDZLJdsQQQ0yYazgw+kTl55Scw3cc+WduhpIMCTyMZqzaWwqa2oad015ZWTYtZHK+jdRjI0QnY4q0IP+IJdXG7i9VzEbdUKEubWDuaSaZoYYMbogZWfg/yEHJPXv6EGSHsyHCrSm69KSr9OaC5qOtfp+9NUtLTEA9ghV7E2QKuNAydDHNB0DsO1bAPH25Ztksvw5tRKW7BQ+mgwtcpoWyyNwPkgN7R+AIkVtcJ1MTg6upeKeg8dhhv1O+6BFKPYR15MewFSfhtXPNIBlMl9+1hbOBq7vXxmtx0/FDrhYtEPBXJ72nFDEjK2igUJwITqQPRrU+n3Gv4FFD55rfyz9BQhn9LTh4AfWFo6U8JAPVgFTyCaXVU9xVejbM2oXYvUps+Lya1FdixWHd+YBSBygZVyOu3lXlr6FyIwiltoBWvBcRjjD7XC03Bl194ZotpwSxwWHiiPAoGo2E3yhB4H8Uyd62iOvulFr2KduaGzRmm5GyNJMVn6cv2Nu/XtDc9gPaHuLfFa5abBsXb4tkSSaGMDD5fBvRpa3QmYlx8FXU5acj4RGCLCdOF5cD+PwHYVWFeJ+ViT514bezX8v6aS2tR2kzHlq8KVpZ/wHylp2IUWzk0hcAl4iR1Yj5F/CE78cjzpgErXMCwD/OZtVM5TMlQWwBTFYg/G5JzT04ihoswzDzpDHHtXdjA3xTnzQi+s9GLXf0k0by4hGkI/QO7BivDnXVdcY3w4WYiA07yTf9x6XENgJvQSC6I2L0HzHws15pP0uy8ZACpn5gG+iK/CrR1wgics+Jvqg2LyIGP8BOKaPxkmh0or+TBLEQk3Ss5289caIv0ccIIhTgi5QYciRMy6ewin+uZOIk+MYKWIgpce/vERqVCBv5issR1gYY+Jjv8YbNCp72Z3wd7AmkhMBALMleuxFGUiJs5MvHfmkew2r7d75hvZFk6CsEn/B9ihhSvQgl1pREKMDXwngt/Y2YkU25luJslmkWQfWsCwnQxyT4wsqNX0G469K9mqaTtEQoxBf2kfzAesxm27GoXkB6EKXDiewhzx5sR7DIXug37huR/NB6nBGfJIZ0JWssneE7K4LGfh47yzCygBDITchvUYL4LQp6gOHbgF8JvFby3vA9zoQToUEMPhmpqwjjtOEhrLJ1ORZ+HYQ3YthpZv/rIKTiA8b0gEATbn+T33z8fdzDRXYl6x5JNN9du2KOJSKrEaX1ILMY+dMXvN9rYbpRzMmog3AxXAvQk97vtf6FqpPYojVoHWwsaDn0caLtbL6Pm4jfmcGepNd15mFzVYr8tN417lJkxqV8vNhUnsM0gUzV7MHbsY6AHTg1ZQJ/Qfc/urTmDwmZcrUAAAAASUVORK5CYII=;" vertex="1" parent="1">
          <mxGeometry x="797" y="827" width="50" height="51" as="geometry" />
        </mxCell>
        <mxCell id="RXyxvR0ZlvbnnxnLkfDE-21" value="" style="rounded=0;whiteSpace=wrap;html=1;fillColor=none;strokeColor=light-dark(#cf2620, #d7817e);" vertex="1" parent="1">
          <mxGeometry x="744" y="438" width="155" height="455" as="geometry" />
        </mxCell>
      </root>
    </mxGraphModel>
  </diagram>
</mxfile>
